<svg xmlns="http://www.w3.org/2000/svg" viewBox="0 0 22.4069 21.0269">
  <path d="M4.31198 9.50788C2.84884 10.4301 1.88236 12.0597 1.88236 13.9092C1.88236 16.8087 4.21503 19.1445 7.10791 19.1445C7.9891 19.1445 8.81979 18.9257 9.54731 18.5371C9.97325 19.0417 10.4714 19.4823 11.0251 19.8456C9.90335 20.5929 8.55628 21.0269 7.10791 21.0269C3.18842 21.0269 0 17.8384 0 13.9092C0 11.1401 1.59941 8.73283 3.92889 7.57038C3.95803 8.24851 4.09071 8.89899 4.31198 9.50788ZM14.2158 13.9092C14.2158 15.6781 13.5709 17.2969 12.4997 18.5387C11.936 18.2435 11.4345 17.8467 11.0214 17.3698C11.7893 16.5068 12.2719 15.3851 12.3223 14.1499C12.9866 14.032 13.6171 13.8167 14.1978 13.5164ZM13.8148 11.5783C13.2914 11.9166 12.7013 12.1589 12.0695 12.287C11.8505 11.6052 11.4898 10.9876 11.0238 10.465C11.4365 9.99025 11.9372 9.59454 12.5 9.29985C13.0731 9.96306 13.5243 10.7334 13.8148 11.5783ZM11.023 7.99264C10.4698 8.3555 9.97204 8.79528 9.54642 9.29851C8.81913 8.91144 7.98875 8.69341 7.10791 8.69341C6.74572 8.69341 6.39231 8.73013 6.05119 8.80009C5.87911 8.28751 5.78771 7.73793 5.78771 7.1665C5.78771 7.08903 5.7894 7.01195 5.79932 6.937C6.22245 6.85261 6.66041 6.81105 7.10791 6.81105C8.55358 6.81105 9.90048 7.24551 11.023 7.99264Z" fill="black" fill-opacity="0.2125"/>
  <path d="M22.0456 13.9092C22.0456 17.8384 18.8541 21.0269 14.9443 21.0269C11.0182 21.0269 7.82978 17.8384 7.82978 13.9092C7.82978 13.7781 7.83337 13.6478 7.84951 13.5207C8.43011 13.8194 9.06029 14.0335 9.72427 14.1505C9.84406 16.9382 12.1328 19.1445 14.9443 19.1445C17.8341 19.1445 20.1632 16.8021 20.1632 13.9092C20.1632 12.0513 19.1884 10.4199 17.7213 9.50029C17.9412 8.89116 18.0729 8.24057 18.1012 7.56239C20.4371 8.7215 22.0456 11.1336 22.0456 13.9092ZM16.2301 6.93394C16.2402 7.00989 16.2419 7.088 16.2419 7.1665C16.2419 7.73686 16.1511 8.28544 15.9802 8.79723C15.6455 8.72891 15.299 8.69341 14.9443 8.69341C12.6217 8.69341 10.6559 10.2034 9.97415 12.2872C9.34312 12.1598 8.75354 11.9192 8.2304 11.5832C9.19151 8.80844 11.8369 6.81105 14.9443 6.81105C15.3838 6.81105 15.8142 6.85133 16.2301 6.93394Z" fill="black" fill-opacity="0.425"/>
  <path d="M11.023 14.2744C14.9394 14.2744 18.1212 11.0926 18.1212 7.1665C18.1212 3.25011 14.9394 0.0616992 11.023 0.0616992C7.09687 0.0616992 3.90846 3.25011 3.90846 7.1665C3.90846 11.0926 7.09687 14.2744 11.023 14.2744ZM11.023 12.392C8.13015 12.392 5.78771 10.0594 5.78771 7.1665C5.78771 4.28339 8.13015 1.94095 11.023 1.94095C13.8995 1.94095 16.2419 4.28339 16.2419 7.1665C16.2419 10.0594 13.9061 12.392 11.023 12.392Z" fill="black" fill-opacity="0.85"/>
</svg>
