<svg xmlns="http://www.w3.org/2000/svg" viewBox="0 0 24.1855 26.925">
  <path d="M16.9231 6.4288C15.4308 6.4288 14.2736 7.23269 13.4391 9.07929C10.4673 6.17538 5.92942 3.6523 1.40752 3.30429C0.222 3.22662 0.0404577 4.17511 0.0178211 4.79786C-0.294679 9.80223 3.54141 14.2215 8.47702 14.89C7.12585 17.7331 5.24782 20.2936 2.81398 22.4514C2.31466 22.8717 2.4904 23.5069 2.75628 23.9117C4.02042 25.8785 8.01522 27.166 10.5711 26.2796C11.2719 26.0373 11.382 25.6187 11.382 25.1323L11.382 21.6365C14.1194 21.4155 18.3754 19.459 17.7193 13.8745L17.6434 13.3151C19.6764 12.7607 21.0742 11.3998 21.0742 9.98247C21.0742 8.25669 19.1824 6.4288 16.9231 6.4288ZM17.0172 8.15491C18.3671 8.15491 19.3761 9.13016 19.3761 9.98247C19.3761 10.6874 18.4643 11.5126 16.4921 11.7887C16.0811 11.8397 15.8321 12.1167 15.8676 12.4895L15.9853 13.9228C16.3866 18.9765 12.4998 19.7081 10.2435 19.8434C9.86406 19.8656 9.60575 20.1386 9.60575 20.4967L9.60575 24.6654C9.60575 24.8003 9.56668 24.8846 9.40336 24.8975C7.77279 25.1555 5.44208 24.357 4.55246 23.376C4.46547 23.2703 4.4517 23.1629 4.53293 23.0946C7.16344 20.7454 9.17459 17.7566 10.5719 14.4253C10.8134 13.858 10.5506 13.388 9.98918 13.3747C5.38732 13.2917 1.92894 9.91407 1.79051 5.32288C1.7874 5.16086 1.83533 5.1218 1.99469 5.14754C6.08473 5.70815 9.916 8.03282 12.1989 10.3224C12.6676 10.7818 12.985 10.9931 13.4315 10.9931C14.1563 10.9931 14.5119 10.6464 14.8807 9.89278C15.4067 8.80475 15.883 8.15491 17.0172 8.15491ZM15.0358 7.94758L16.6926 7.36749C15.2886 4.04595 13.324 1.75376 10.6762 0.227261C9.79387-0.276956 8.90172 0.0825741 8.65317 1.06081C8.14936 2.93753 7.94163 4.70241 8.20705 6.55428L10.1688 7.48811C9.7365 5.64245 9.77381 4.07729 10.1653 2.34881C10.1977 2.16682 10.3549 2.11133 10.5076 2.20854C12.4368 3.51934 13.8834 5.31532 15.0358 7.94758ZM17.6493 10.2798C17.984 10.2798 18.2699 10.0069 18.2699 9.66241C18.2699 9.32772 17.984 9.0321 17.6493 9.0321C17.2982 9.0321 17.019 9.32772 17.019 9.66241C17.019 10.0069 17.2982 10.2798 17.6493 10.2798ZM19.2243 11.627L23.0403 12.1783C23.8192 12.2915 24.1752 11.1685 23.3896 10.8356L19.9402 9.36907Z" fill="black" fill-opacity="0.85"/>
</svg>
