<svg xmlns="http://www.w3.org/2000/svg" viewBox="0 0 20.6881 23.4576">
  <path d="M20.3268 7.02288L20.3268 21.3489C20.3268 22.6471 19.6011 23.4478 18.3713 23.4478L12.9574 23.4478C14.1654 23.4478 14.887 22.6753 14.9105 21.4164L17.8519 21.4164C18.1449 21.4164 18.299 21.2659 18.299 20.9729L18.299 7.39217C18.299 7.10227 18.1449 6.94512 17.8519 6.94512L14.9129 6.94512L14.9129 4.92041L18.3713 4.92041C19.6011 4.92041 20.3268 5.71134 20.3268 7.02288ZM16.7324 16.3742L16.7324 17.7858C16.7324 17.9651 16.6148 18.0792 16.4288 18.0792L14.9129 18.0792L14.9129 16.071L16.4288 16.071C16.6148 16.071 16.7324 16.1851 16.7324 16.3742ZM16.7324 13.0342L16.7324 14.4458C16.7324 14.622 16.6148 14.7459 16.4288 14.7459L14.9129 14.7459L14.9129 12.731L16.4288 12.731C16.6148 12.731 16.7324 12.8518 16.7324 13.0342ZM16.7324 9.69424L16.7324 11.1027C16.7324 11.2821 16.6148 11.4059 16.4288 11.4059L14.9129 11.4059L14.9129 9.39106L16.4288 9.39106C16.6148 9.39106 16.7324 9.5118 16.7324 9.69424Z" fill="black" fill-opacity="0.85"/>
  <path d="M1.95554 23.4478L12.9574 23.4478C14.1873 23.4478 14.9129 22.6471 14.9129 21.3489L14.9129 2.09892C14.9129 0.79404 14.1873 0 12.9574 0L1.95554 0C0.725681 0 0 0.79404 0 2.09892L0 21.3489C0 22.6471 0.725681 23.4478 1.95554 23.4478ZM2.47798 21.4164C2.18852 21.4164 2.02782 21.2659 2.02782 20.9729L2.02782 2.47487C2.02782 2.18186 2.18852 2.02471 2.47798 2.02471L12.4381 2.02471C12.7311 2.02471 12.8851 2.18186 12.8851 2.47487L12.8851 20.9729C12.8851 21.2659 12.7311 21.4164 12.4381 21.4164ZM4.46882 7.38073L6.29814 7.38073C6.52985 7.38073 6.683 7.23069 6.683 6.99587L6.683 5.20606C6.683 4.9779 6.52985 4.8212 6.29814 4.8212L4.46882 4.8212C4.2371 4.8212 4.09372 4.9779 4.09372 5.20606L4.09372 6.99587C4.09372 7.23069 4.2371 7.38073 4.46882 7.38073ZM8.60503 7.38073L10.4343 7.38073C10.6661 7.38073 10.8161 7.23069 10.8161 6.99587L10.8161 5.20606C10.8161 4.9779 10.6661 4.8212 10.4343 4.8212L8.60503 4.8212C8.37997 4.8212 8.22993 4.9779 8.22993 5.20606L8.22993 6.99587C8.22993 7.23069 8.37997 7.38073 8.60503 7.38073ZM4.46882 11.0678L6.29814 11.0678C6.52985 11.0678 6.683 10.9178 6.683 10.6829L6.683 8.89624C6.683 8.66497 6.52985 8.50827 6.29814 8.50827L4.46882 8.50827C4.2371 8.50827 4.09372 8.66497 4.09372 8.89624L4.09372 10.6829C4.09372 10.9178 4.2371 11.0678 4.46882 11.0678ZM8.60503 11.0678L10.4343 11.0678C10.6661 11.0678 10.8161 10.9178 10.8161 10.6829L10.8161 8.89624C10.8161 8.66497 10.6661 8.50827 10.4343 8.50827L8.60503 8.50827C8.37997 8.50827 8.22993 8.66497 8.22993 8.89624L8.22993 10.6829C8.22993 10.9178 8.37997 11.0678 8.60503 11.0678ZM4.46882 14.758L6.29814 14.758C6.52985 14.758 6.683 14.5982 6.683 14.37L6.683 12.5833C6.683 12.3485 6.52985 12.1953 6.29814 12.1953L4.46882 12.1953C4.2371 12.1953 4.09372 12.3485 4.09372 12.5833L4.09372 14.37C4.09372 14.5982 4.2371 14.758 4.46882 14.758ZM8.60503 14.758L10.4343 14.758C10.6661 14.758 10.8161 14.5982 10.8161 14.37L10.8161 12.5833C10.8161 12.3485 10.6661 12.1953 10.4343 12.1953L8.60503 12.1953C8.37997 12.1953 8.22993 12.3485 8.22993 12.5833L8.22993 14.37C8.22993 14.5982 8.37997 14.758 8.60503 14.758ZM4.44275 22.4026L5.99838 22.4026L5.99838 19.3246C5.99838 19.1479 6.08938 19.0503 6.27938 19.0503L8.64642 19.0503C8.82976 19.0503 8.92742 19.1479 8.92742 19.3246L8.92742 22.4026L10.4799 22.4026L10.4799 18.7499C10.4799 17.9744 10.104 17.5594 9.35425 17.5594L5.57156 17.5594C4.82181 17.5594 4.44275 17.9744 4.44275 18.7499Z" fill="black" fill-opacity="0.85"/>
</svg>
