<svg xmlns="http://www.w3.org/2000/svg" viewBox="0 0 24.6159 19.6331">
  <path d="M19.2605 7.78835C19.9277 7.78835 20.4715 7.24458 20.4715 6.57742C20.4715 5.90359 19.9277 5.36648 19.2605 5.36648C18.5867 5.36648 18.0496 5.90359 18.0496 6.57742C18.0496 7.24458 18.5867 7.78835 19.2605 7.78835ZM3.30863 19.0361L20.9428 19.0361C23.0983 19.0361 24.2545 17.8931 24.2545 15.7541L24.2545 5.4891C24.2545 3.35006 23.0983 2.21377 20.9428 2.21377L18.3548 2.21377C17.5926 2.21377 17.3334 2.08858 16.8412 1.59098L16.0754 0.786602C15.5499 0.255704 15.0301 0 14.0429 0L10.1619 0C9.17781 0 8.65492 0.255704 8.13248 0.786602L7.36365 1.59098C6.8714 2.08192 6.60863 2.21377 5.85002 2.21377L3.30863 2.21377C1.14961 2.21377 0 3.35006 0 5.4891L0 15.7541C0 17.8931 1.14961 19.0361 3.30863 19.0361ZM3.48964 16.8614C2.64751 16.8614 2.17471 16.4276 2.17471 15.53L2.17471 5.71984C2.17471 4.82222 2.64751 4.38849 3.48964 4.38849L6.52945 4.38849C7.40835 4.38849 7.8496 4.238 8.34409 3.70354L9.07165 2.90938C9.60966 2.32475 9.92126 2.17471 10.7651 2.17471L13.4397 2.17471C14.2867 2.17471 14.5952 2.32786 15.1207 2.90007L15.8638 3.70354C16.3583 4.23489 16.7996 4.38849 17.6754 4.38849L20.7551 4.38849C21.607 4.38849 22.0798 4.82222 22.0798 5.71984L22.0798 15.53C22.0798 16.4276 21.607 16.8614 20.7551 16.8614ZM12.1257 15.6414C15.0253 15.6414 17.3548 13.3185 17.3548 10.3959C17.3548 7.48304 15.0319 5.16013 12.1257 5.16013C9.22574 5.16013 6.89306 7.48304 6.89306 10.3959C6.89306 13.3185 9.22574 15.6414 12.1257 15.6414ZM12.1257 13.6975C10.314 13.6975 8.83038 12.2307 8.83038 10.3959C8.83038 8.56466 10.3074 7.09745 12.1257 7.09745C13.9503 7.09745 15.4175 8.56466 15.4175 10.3959C15.4175 12.2307 13.9503 13.6975 12.1257 13.6975Z" fill="#00857e"/>
</svg>
