<svg xmlns="http://www.w3.org/2000/svg" viewBox="0 0 17.9142 10.9221">
  <path d="M8.78134 10.9221C9.18075 10.919 9.52427 10.7685 9.83313 10.4526L17.1743 2.93202C17.4242 2.68216 17.5529 2.38036 17.5529 2.02132C17.5529 1.28371 16.9702 0.694339 16.2419 0.694339C15.8829 0.694339 15.5465 0.838577 15.2842 1.10352L8.34095 8.24382L9.2275 8.24382L2.27184 1.10352C2.01311 0.844787 1.67981 0.694339 1.31101 0.694339C0.579605 0.694339 0 1.28371 0 2.02132C0 2.37726 0.131816 2.67905 0.375466 2.93868L7.72289 10.4526C8.04508 10.7748 8.37838 10.9221 8.78134 10.9221Z"/>
</svg>
