<svg xmlns="http://www.w3.org/2000/svg" viewBox="0 0 23.8271 21.9083">
  <path d="M5.74762 0.903668C5.22252 2.03513 5.01965 3.18833 5.01965 4.30603C5.01965 8.08475 7.71619 11.0761 11.7507 11.0761C15.7851 11.0761 18.4786 8.08475 18.4786 4.30603C18.4786 3.17902 18.2788 2.03203 17.7604 0.903668C17.4741 0.313808 16.7591 0.205078 16.2886 0.68531L14.2253 2.79076L12.4657 0.518396C12.0822 0.0221872 11.416 0.0221872 11.0392 0.518396L9.27954 2.79076L7.2096 0.68531C6.73913 0.205078 6.03343 0.310702 5.74762 0.903668ZM10.7582 20.974C10.7582 21.5222 11.1932 21.9083 11.7507 21.9083C16.9796 21.9083 21.7922 18.6968 23.3746 14.1758C23.6391 13.4404 23.3214 12.9384 22.5407 12.9384C17.5038 12.9384 13.7176 15.8309 12.1667 19.7774L12.7466 20.0162L12.7466 9.73576L10.7582 9.73576ZM9.26197 16.5945C7.33598 14.3732 4.44621 12.9384 0.925154 12.9384C0.14754 12.9384-0.173337 13.4404 0.0911929 14.1758C1.41531 17.996 5.05434 20.9065 9.36805 21.6766C9.30059 21.464 9.26197 21.219 9.26197 20.974Z" fill="black" fill-opacity="0.85"/>
</svg>
