<svg xmlns="http://www.w3.org/2000/svg" viewBox="0 0 15.961 24.3133">
  <path d="M7.79983 11.9964C9.97577 11.9964 12.1362 11.8596 13.9188 11.5929C15.4253 11.3758 15.9824 10.232 15.3281 8.74146L12.4308 2.20826C11.7695 0.7133 10.6704 0 9.0068 0L6.5862 0C4.92923 0 3.8271 0.7133 3.16884 2.20826L0.271554 8.74146C-0.382702 10.232 0.167687 11.3758 1.68083 11.5929C3.45682 11.8596 5.61413 11.9964 7.79983 11.9964ZM7.79983 10.1726C6.00385 10.1726 4.23317 10.0719 2.40471 9.86279C1.96653 9.81351 1.89106 9.55025 2.07574 9.1347L4.81813 2.95257C5.16703 2.17308 5.71926 1.81706 6.5862 1.81706L9.0068 1.81706C9.87374 1.81706 10.4326 2.17308 10.7815 2.95257L13.5239 9.1347C13.7086 9.55025 13.6234 9.81351 13.1949 9.86279C11.3665 10.0719 9.58604 10.1726 7.79983 10.1726ZM6.77767 13.4949L8.81844 13.4949L8.81844 11.281L6.77767 11.281ZM6.32077 24.3036L9.26913 24.3036C11.9905 24.3036 13.5277 22.9551 13.5277 20.5839C13.5277 19.179 13.0856 17.0941 12.3243 14.9958C11.8507 13.7015 10.832 12.9518 9.40981 12.9518L6.18319 12.9518C4.761 12.9518 3.74231 13.7015 3.2687 14.9958C2.51409 17.0941 2.06843 19.179 2.06843 20.5839C2.06843 22.9551 3.6056 24.3036 6.32077 24.3036ZM6.32077 22.4865C4.76754 22.4865 3.87573 21.7927 3.87573 20.5839C3.87573 19.3721 4.28278 17.5224 4.96326 15.6145C5.15637 15.0711 5.54393 14.7657 6.18319 14.7657L9.40981 14.7657C10.046 14.7657 10.4366 15.0711 10.6266 15.6145C11.3102 17.5224 11.7204 19.3721 11.7204 20.5839C11.7204 21.7927 10.8286 22.4865 9.26913 22.4865Z" fill="black" fill-opacity="0.85"/>
</svg>
