<svg xmlns="http://www.w3.org/2000/svg" viewBox="0 0 35.5659 18.0723">
  <path d="M11.9325 5.67988L14.7228 9.20311L12.5138 12.0995C11.0735 12.0448 10.4879 10.974 9.78083 10.974C9.05103 10.974 8.46243 12.105 6.93548 12.105C6.3761 12.105 5.94467 11.88 5.58901 11.5998L2.61916 15.3348C2.39279 15.6224 2.53748 15.9877 2.9192 15.9877L10.1005 15.9877C10.0493 17.0734 10.7766 18.0723 12.2609 18.0723L2.03579 18.0723C0.0773967 18.0723-0.578985 16.0612 0.555993 14.6195L7.62912 5.67988C8.26115 4.88142 9.02455 4.48152 9.78083 4.48152C10.5438 4.48152 11.3072 4.88142 11.9325 5.67988ZM9.27216 6.96788L6.37759 10.6081C6.56422 10.744 6.74743 10.832 6.93548 10.832C7.76241 10.832 8.46509 9.70409 9.78083 9.70409C11.1001 9.70409 11.8059 10.832 12.6328 10.832C12.8211 10.832 13.004 10.7439 13.1904 10.6077L10.2962 6.96788C10.1435 6.78323 9.95927 6.68557 9.78083 6.68557C9.60906 6.68557 9.4182 6.78323 9.27216 6.96788Z" fill="black" fill-opacity="0.85"/>
  <path d="M12.2609 18.0723L33.0464 18.0723C35.1964 18.0723 35.7534 15.9729 34.6726 14.5566L24.7967 1.61779C23.5726 0.0164258 21.7382 0.00931621 20.5008 1.6271L10.6347 14.5633C9.55083 15.9827 10.114 18.0723 12.2609 18.0723ZM12.9683 15.9908C12.5728 15.9908 12.4348 15.6322 12.6545 15.3379L22.1346 2.91465C22.4231 2.5387 22.8909 2.54225 23.1595 2.90178L32.6462 15.3343C32.8757 15.6286 32.7279 15.9908 32.3262 15.9908ZM19.3802 9.77188C21.1255 9.77188 21.8171 8.45176 22.6503 8.45176C23.4902 8.45176 24.1818 9.77188 25.9271 9.77188C27.1654 9.77188 27.8596 8.87128 28.438 8.37805L27.5463 7.2396C26.9497 7.75276 26.4606 8.32939 25.9271 8.32939C24.987 8.32939 24.188 7.00927 22.6503 7.00927C21.1566 7.00927 20.3235 8.32939 19.3802 8.32939C18.837 8.32939 18.3261 7.73989 17.7166 7.22362L16.8777 8.37405C17.4628 8.88946 18.157 9.77188 19.3802 9.77188Z" fill="black" fill-opacity="0.85"/>
</svg>
